<svg width="24" height="24" viewBox="0 0 24 24" fill="none" xmlns="http://www.w3.org/2000/svg">
<mask id="mask0_214_85" style="mask-type:alpha" maskUnits="userSpaceOnUse" x="0" y="0" width="24" height="24">
<rect width="24" height="24" fill="#D9D9D9"/>
</mask>
<g mask="url(#mask0_214_85)">
<path d="M12 22.5C10.8 21.3667 9.425 20.5 7.875 19.9C6.325 19.3 4.7 19 3 19V8C4.68333 8 6.3 8.304 7.85 8.912C9.4 9.52067 10.7833 10.4 12 11.55C13.2167 10.4 14.6 9.52067 16.15 8.912C17.7 8.304 19.3167 8 21 8V19C19.2833 19 17.6543 19.3 16.113 19.9C14.571 20.5 13.2 21.3667 12 22.5ZM12 19.9C13.05 19.1167 14.1667 18.4917 15.35 18.025C16.5333 17.5583 17.75 17.25 19 17.1V10.2C17.7833 10.4167 16.5877 10.854 15.413 11.512C14.2377 12.1707 13.1 13.05 12 14.15C10.9 13.05 9.76267 12.1707 8.588 11.512C7.41267 10.854 6.21667 10.4167 5 10.2V17.1C6.25 17.25 7.46667 17.5583 8.65 18.025C9.83333 18.4917 10.95 19.1167 12 19.9ZM12 9C10.9 9 9.95833 8.60833 9.175 7.825C8.39167 7.04167 8 6.1 8 5C8 3.9 8.39167 2.95833 9.175 2.175C9.95833 1.39167 10.9 1 12 1C13.1 1 14.0417 1.39167 14.825 2.175C15.6083 2.95833 16 3.9 16 5C16 6.1 15.6083 7.04167 14.825 7.825C14.0417 8.60833 13.1 9 12 9ZM12 7C12.55 7 13.021 6.804 13.413 6.412C13.8043 6.02067 14 5.55 14 5C14 4.45 13.8043 3.979 13.413 3.587C13.021 3.19567 12.55 3 12 3C11.45 3 10.9793 3.19567 10.588 3.587C10.196 3.979 10 4.45 10 5C10 5.55 10.196 6.02067 10.588 6.412C10.9793 6.804 11.45 7 12 7Z" fill="#1C1B1F"/>
</g>
</svg>
