<svg width="24" height="24" viewBox="0 0 24 24" fill="none" xmlns="http://www.w3.org/2000/svg">
<mask id="mask0_217_7" style="mask-type:alpha" maskUnits="userSpaceOnUse" x="0" y="0" width="24" height="24">
<rect width="24" height="24" fill="#D9D9D9"/>
</mask>
<g mask="url(#mask0_217_7)">
<path d="M7.5 6C7.08333 6 6.72933 6.146 6.438 6.438C6.146 6.72933 6 7.08333 6 7.5C6 7.91667 6.146 8.27067 6.438 8.562C6.72933 8.854 7.08333 9 7.5 9C7.91667 9 8.27067 8.854 8.562 8.562C8.854 8.27067 9 7.91667 9 7.5C9 7.08333 8.854 6.72933 8.562 6.438C8.27067 6.146 7.91667 6 7.5 6ZM7.5 16C7.08333 16 6.72933 16.146 6.438 16.438C6.146 16.7293 6 17.0833 6 17.5C6 17.9167 6.146 18.2707 6.438 18.562C6.72933 18.854 7.08333 19 7.5 19C7.91667 19 8.27067 18.854 8.562 18.562C8.854 18.2707 9 17.9167 9 17.5C9 17.0833 8.854 16.7293 8.562 16.438C8.27067 16.146 7.91667 16 7.5 16ZM4 3H20C20.2833 3 20.5207 3.09567 20.712 3.287C20.904 3.479 21 3.71667 21 4V11C21 11.2833 20.904 11.5207 20.712 11.712C20.5207 11.904 20.2833 12 20 12H4C3.71667 12 3.47933 11.904 3.288 11.712C3.096 11.5207 3 11.2833 3 11V4C3 3.71667 3.096 3.479 3.288 3.287C3.47933 3.09567 3.71667 3 4 3ZM5 5V10H19V5H5ZM4 13H20C20.2833 13 20.5207 13.0957 20.712 13.287C20.904 13.479 21 13.7167 21 14V21C21 21.2833 20.904 21.5207 20.712 21.712C20.5207 21.904 20.2833 22 20 22H4C3.71667 22 3.47933 21.904 3.288 21.712C3.096 21.5207 3 21.2833 3 21V14C3 13.7167 3.096 13.479 3.288 13.287C3.47933 13.0957 3.71667 13 4 13ZM5 15V20H19V15H5Z" fill="#1C1B1F"/>
</g>
</svg>
